<svg width="58" height="73" viewBox="0 0 58 73" fill="none" xmlns="http://www.w3.org/2000/svg">
<path d="M15.992 54.091C18.3968 56.7822 20.5854 59.6171 22.5421 62.5752C24.2128 65.357 24.9093 67.2434 26.1302 70.5953C26.879 72.4473 27.5558 73 29.0108 73C30.5962 73 31.3156 72.0597 31.8714 70.6055C33.0255 67.44 33.931 65.0242 35.3597 62.7415C38.1632 58.3345 41.6469 54.4183 45.0698 50.6545C45.9964 49.5893 51.9877 43.3834 54.6849 38.4867C54.6849 38.4867 58 33.1078 58 25.5956C58 18.5686 54.7307 13.695 54.7307 13.695L45.3181 15.9087L39.6019 29.1299L38.1877 30.953L37.905 31.2833L37.5289 31.6967L36.8687 32.3571L35.9252 33.1854L30.835 36.8272L18.109 43.28L15.992 54.091V54.091Z" fill="#34A853"/>
<path d="M2.85742 37.5824C5.96338 43.8126 11.9528 49.2892 16.0051 54.0953L37.5289 31.7053C37.5289 31.7053 34.4965 35.1879 28.996 35.1879C22.8691 35.1879 17.9194 30.8913 17.9194 25.4736C17.9194 21.7583 20.4646 19.2061 20.4646 19.2061L5.85372 22.6441L2.85742 37.5822V37.5824Z" fill="#FBBC04"/>
<path d="M37.7692 1.15138C44.9178 3.17543 51.0363 7.42467 54.7373 13.6906L37.5354 31.6923C37.5354 31.6923 40.0806 29.0939 40.0806 25.4017C40.0806 19.8578 34.7648 15.7162 29.0221 15.7162C23.5916 15.7162 20.4727 19.1931 20.4727 19.1931V7.85225L37.7692 1.15118V1.15138Z" fill="#4285F4"/>
<path d="M6.80029 9.10553C11.0699 4.61951 18.5827 0 28.9403 0C33.9655 0 37.7513 1.15856 37.7513 1.15856L20.4564 19.2031H8.20272L6.80029 9.10572V9.10553Z" fill="#1A73E8"/>
<path d="M2.85742 37.5825C2.85742 37.5825 0 32.6685 0 25.5496C0 18.8213 2.9784 12.9399 6.8003 9.10553L20.4661 19.2047L2.85742 37.5825V37.5825Z" fill="#EA4335"/>
</svg>
