<svg width="94" height="100" viewBox="0 0 94 100" fill="none" xmlns="http://www.w3.org/2000/svg">
<path d="M51.7704 0C38.8337 0 26.7703 6.20833 18.4983 17.2833C12.5646 25.2542 9.45083 35.0833 9.45083 45.225V52.4708C9.45083 56.1958 7.0225 59.7125 2.158 60.025C0.990833 60.1292 0.0155831 60.9583 0.0155831 62.2C-0.18025 65.6167 3.22725 71.825 7.89592 76.7917C11.1076 80.3083 14.8989 83.1042 18.9879 85.275C18.6854 87.0749 18.7578 88.9235 19.1999 90.6904C19.642 92.4574 20.4431 94.0996 21.5468 95.5013C22.6504 96.903 24.0296 98.0301 25.5872 98.8031C27.1449 99.5761 28.8429 99.9761 30.5617 99.975C33.2627 99.9967 35.8865 99.0165 37.9817 97.2028C40.0768 95.3891 41.5124 92.8554 42.0414 90.0375H51.8683C53.1334 97.075 60.0385 101.937 67.4332 99.2458C73.8565 96.9708 76.6765 89.2083 74.3383 82.8958C76.9082 81.0995 79.318 79.0562 81.5371 76.7917C85.4953 72.6219 88.6348 67.6566 90.7729 62.1845C92.9111 56.7124 94.0054 50.8427 93.9921 44.9167C93.9921 32.9083 89.6133 21.6292 81.635 13.1458C73.6845 4.7692 62.9601 0.0485206 51.7704 0V0ZM51.7704 5.07083C61.7893 5.07083 71.2245 9.2125 78.3254 16.7667C81.8227 20.4683 84.5952 24.871 86.4823 29.7202C88.3695 34.5693 89.3338 39.7684 89.3195 45.0167C89.3351 50.265 88.3722 55.4645 86.4864 60.3143C84.6006 65.1641 81.8295 69.5679 78.3333 73.2708C71.2754 80.7385 61.7325 84.9415 51.7782 84.9667H42.1432C41.6053 82.1454 40.1709 79.6072 38.0811 77.7785C35.9912 75.9498 33.3733 74.9422 30.6674 74.925C28.6988 74.9242 26.761 75.4444 25.0284 76.4387C23.2959 77.433 21.823 78.8702 20.7426 80.6208V80.7208C17.2243 78.8207 14.033 76.3019 11.3034 73.2708C7.99775 69.7542 6.14908 66.5458 5.36967 64.4792C7.53906 63.9285 9.50438 62.7011 11.0136 60.9542C13.0312 58.6528 14.1452 55.6177 14.1273 52.4708V45.0167C14.1273 36.225 16.8533 27.5292 22.0077 20.5958C29.3044 10.6583 40.1027 5.07083 51.7743 5.07083H51.7704ZM42.3312 30.0125C41.0937 30.0136 39.9072 30.5374 39.0325 31.4687C38.1578 32.4 37.6665 33.6626 37.6665 34.9792C37.666 35.6317 37.7864 36.278 38.0208 36.8811C38.2551 37.4842 38.599 38.0322 39.0325 38.4938C39.4661 38.9555 39.981 39.3217 40.5476 39.5715C41.1143 39.8214 41.7217 39.95 42.3352 39.95C42.9483 39.9495 43.5553 39.8204 44.1215 39.5703C44.6877 39.3202 45.2021 38.9539 45.6353 38.4923C46.0684 38.0308 46.4119 37.4829 46.646 36.8801C46.8802 36.2773 47.0004 35.6314 46.9999 34.9792C46.9999 33.6619 46.508 32.3986 45.6325 31.4672C44.7569 30.5358 43.5695 30.0125 42.3312 30.0125V30.0125ZM70.5469 30.0125C69.3087 30.0125 68.1212 30.5358 67.2457 31.4672C66.3701 32.3986 65.8783 33.6619 65.8783 34.9792C65.8777 35.6317 65.9981 36.278 66.2325 36.8811C66.4669 37.4842 66.8107 38.0322 67.2443 38.4938C67.6779 38.9555 68.1927 39.3217 68.7594 39.5715C69.3261 39.8214 69.9335 39.95 70.5469 39.95C71.1603 39.95 71.7678 39.8214 72.3344 39.5715C72.9011 39.3217 73.416 38.9555 73.8495 38.4938C74.2831 38.0322 74.6269 37.4842 74.8613 36.8811C75.0957 36.278 75.2161 35.6317 75.2156 34.9792C75.2156 33.6619 74.7237 32.3986 73.8482 31.4672C72.9726 30.5358 71.7851 30.0125 70.5469 30.0125ZM41.6537 49.8833C41.2607 49.8802 40.8734 49.9826 40.5276 50.1811C40.1817 50.3796 39.8886 50.6677 39.6753 51.0189C39.4621 51.37 39.3356 51.7727 39.3076 52.1896C39.2796 52.6066 39.351 53.0244 39.5152 53.4042C41.0395 56.8365 43.4483 59.7381 46.4615 61.7717C49.4747 63.8052 52.9686 64.8871 56.537 64.8917C60.1104 64.9096 63.6138 63.837 66.6315 61.8009C69.6492 59.7648 72.0547 56.8507 73.5628 53.4042C73.7271 53.024 73.7985 52.6059 73.7703 52.1886C73.7421 51.7713 73.6153 51.3683 73.4015 51.0171C73.1878 50.6658 72.8941 50.3778 72.5478 50.1796C72.2014 49.9814 71.8136 49.8795 71.4203 49.8833H71.3224C70.8853 49.8817 70.4576 50.0188 70.0941 50.277C69.7306 50.5353 69.4478 50.9031 69.2818 51.3333C68.1439 53.905 66.3408 56.0785 64.0837 57.5994C61.8265 59.1202 59.2088 59.9255 56.537 59.9208C53.8653 59.925 51.2478 59.1195 48.9907 57.5987C46.7337 56.0779 44.9305 53.9047 43.7922 51.3333C43.5891 50.9112 43.2839 50.5543 42.908 50.2994C42.5321 50.0445 42.0991 49.9009 41.6537 49.8833V49.8833Z" fill="#699BF7"/>
</svg>
